<svg xmlns="http://www.w3.org/2000/svg" xmlns:xlink="http://www.w3.org/1999/xlink" preserveAspectRatio="xMidYMid" width="56" height="56" viewBox="0 0 56 56">
  <defs>
    <style>
      .cls-1 {
        fill: #021fad;
      }

      .cls-2 {
        fill: #fff;
      }

      .cls-2, .cls-3 {
        fill-rule: evenodd;
      }

      .cls-3 {
        fill: #ff2600;
      }
    </style>
  </defs>
  <g>
    <circle cx="28" cy="28" r="20" class="cls-1"/>
    <path d="M2.361,29.424 L11.785,20.000 L2.361,10.576 C3.769,7.947 5.756,5.685 8.139,3.924 L19.008,14.793 L13.800,20.000 L19.008,25.207 L8.139,36.076 C5.756,34.315 3.769,32.053 2.361,29.424 ZM37.603,10.502 L27.300,20.000 L37.603,29.498 C36.198,32.096 34.222,34.331 31.862,36.076 L20.992,25.207 L25.362,20.000 L20.992,14.793 L31.862,3.924 C34.222,5.669 36.198,7.904 37.603,10.502 Z" transform="translate(8 8)" class="cls-2"/>
    <path d="M14.793,19.008 L3.924,8.139 C4.548,7.294 5.224,6.491 5.970,5.756 L17.008,16.793 L14.793,19.008 ZM3.924,31.862 L14.793,20.992 L17.008,23.207 L5.970,34.244 C5.224,33.509 4.548,32.706 3.924,31.862 ZM25.207,20.992 L36.076,31.862 C35.452,32.706 34.776,33.509 34.030,34.244 L22.992,23.207 L25.207,20.992 ZM25.207,19.008 L22.992,16.793 L34.030,5.756 C34.776,6.491 35.452,7.294 36.076,8.139 L25.207,19.008 Z" transform="translate(8 8)" class="cls-3"/>
    <path d="M25.000,39.344 C23.399,39.757 21.730,40.000 20.000,40.000 L20.000,40.000 C18.270,40.000 16.601,39.757 15.000,39.344 L15.000,25.000 L0.656,25.000 C0.243,23.399 0.000,21.730 0.000,20.000 C0.000,18.270 0.243,16.601 0.656,15.000 L15.000,15.000 L15.000,0.656 C16.601,0.243 18.270,0.000 20.000,0.000 C21.730,0.000 23.399,0.243 25.000,0.656 L25.000,15.000 L39.344,15.000 C39.757,16.601 40.000,18.270 40.000,20.000 C40.000,21.730 39.757,23.399 39.344,25.000 L25.000,25.000 L25.000,39.344 Z" transform="translate(8 8)" class="cls-2"/>
    <path d="M23.000,39.751 C22.019,39.899 21.022,40.000 20.000,40.000 C18.978,40.000 17.981,39.899 17.000,39.751 L17.000,23.000 L0.249,23.000 C0.101,22.019 0.000,21.022 0.000,20.000 C0.000,18.978 0.101,17.981 0.249,17.000 L17.000,17.000 L17.000,0.249 C17.981,0.101 18.978,0.000 20.000,0.000 C21.022,0.000 22.019,0.101 23.000,0.249 L23.000,17.000 L39.751,17.000 C39.899,17.981 40.000,18.978 40.000,20.000 C40.000,21.022 39.899,22.019 39.751,23.000 L23.000,23.000 L23.000,39.751 Z" transform="translate(8 8)" class="cls-3"/>
  </g>
</svg>